<svg width="286" height="27" viewBox="0 0 286 27" fill="none" xmlns="http://www.w3.org/2000/svg">
<path d="M3.07 3.086V18.842H10.428L10.142 21H0.6V3.086H3.07ZM23.1071 13.746C23.1071 14.1447 23.0897 14.552 23.0551 14.968H14.3191C14.4231 16.476 14.8044 17.5853 15.4631 18.296C16.1217 19.0067 16.9711 19.362 18.0111 19.362C18.6697 19.362 19.2764 19.2667 19.8311 19.076C20.3857 18.8853 20.9664 18.582 21.5731 18.166L22.6131 19.596C21.1571 20.74 19.5624 21.312 17.8291 21.312C15.9224 21.312 14.4317 20.688 13.3571 19.44C12.2997 18.192 11.7711 16.476 11.7711 14.292C11.7711 12.8707 11.9964 11.614 12.4471 10.522C12.9151 9.41267 13.5737 8.546 14.4231 7.922C15.2897 7.298 16.3037 6.986 17.4651 6.986C19.2851 6.986 20.6804 7.584 21.6511 8.78C22.6217 9.976 23.1071 11.6313 23.1071 13.746ZM20.7411 13.044C20.7411 11.692 20.4724 10.6607 19.9351 9.95C19.3977 9.23933 18.5917 8.884 17.5171 8.884C15.5584 8.884 14.4924 10.3227 14.3191 13.2H20.7411V13.044ZM35.9031 17.802C35.9031 18.3567 35.9985 18.7727 36.1891 19.05C36.3798 19.31 36.6658 19.5093 37.0471 19.648L36.5011 21.312C35.7905 21.2253 35.2185 21.026 34.7851 20.714C34.3518 20.402 34.0311 19.9167 33.8231 19.258C32.9045 20.6273 31.5438 21.312 29.7411 21.312C28.3891 21.312 27.3231 20.9307 26.5431 20.168C25.7631 19.4053 25.3731 18.4087 25.3731 17.178C25.3731 15.722 25.8931 14.604 26.9331 13.824C27.9905 13.044 29.4811 12.654 31.4051 12.654H33.5111V11.64C33.5111 10.6693 33.2771 9.976 32.8091 9.56C32.3411 9.144 31.6218 8.936 30.6511 8.936C29.6458 8.936 28.4151 9.17867 26.9591 9.664L26.3611 7.922C28.0598 7.298 29.6371 6.986 31.0931 6.986C32.7051 6.986 33.9098 7.38467 34.7071 8.182C35.5045 8.962 35.9031 10.08 35.9031 11.536V17.802ZM30.2871 19.518C31.6565 19.518 32.7311 18.8073 33.5111 17.386V14.24H31.7171C29.1865 14.24 27.9211 15.176 27.9211 17.048C27.9211 17.8627 28.1205 18.478 28.5191 18.894C28.9178 19.31 29.5071 19.518 30.2871 19.518ZM32.4971 3.944C32.1678 3.944 31.8645 3.88333 31.5871 3.762C31.3271 3.64067 31.0325 3.46733 30.7031 3.242C30.4431 3.05133 30.2178 2.91267 30.0271 2.826C29.8538 2.73933 29.6718 2.696 29.4811 2.696C29.2038 2.696 28.9611 2.79133 28.7531 2.982C28.5451 3.17267 28.3285 3.476 28.1031 3.892L26.6471 3.164C26.9765 2.47067 27.3751 1.916 27.8431 1.5C28.3285 1.084 28.8745 0.875999 29.4811 0.875999C29.8451 0.875999 30.1571 0.945332 30.4171 1.084C30.6771 1.20533 30.9718 1.37867 31.3011 1.604C31.3531 1.63867 31.4571 1.708 31.6131 1.812C31.7865 1.916 31.9425 1.994 32.0811 2.046C32.2198 2.098 32.3585 2.124 32.4971 2.124C32.7571 2.124 32.9911 2.03733 33.1991 1.864C33.4071 1.67333 33.6325 1.37867 33.8751 0.979999L35.3311 1.708C35.0018 2.436 34.5945 2.99067 34.1091 3.372C33.6238 3.75333 33.0865 3.944 32.4971 3.944ZM45.9637 6.986C47.8877 6.986 49.3784 7.62733 50.4357 8.91C51.5104 10.1927 52.0477 11.9347 52.0477 14.136C52.0477 15.5573 51.805 16.814 51.3197 17.906C50.8344 18.9807 50.1324 19.8213 49.2137 20.428C48.295 21.0173 47.203 21.312 45.9377 21.312C44.0137 21.312 42.5144 20.6707 41.4397 19.388C40.365 18.1053 39.8277 16.3633 39.8277 14.162C39.8277 12.7407 40.0704 11.4927 40.5557 10.418C41.041 9.326 41.743 8.48533 42.6617 7.896C43.5804 7.28933 44.681 6.986 45.9637 6.986ZM45.9637 8.91C43.589 8.91 42.4017 10.6607 42.4017 14.162C42.4017 17.646 43.5804 19.388 45.9377 19.388C48.295 19.388 49.4737 17.6373 49.4737 14.136C49.4737 10.652 48.3037 8.91 45.9637 8.91ZM56.3694 17.698C56.8894 17.698 57.3227 17.8713 57.6694 18.218C58.0161 18.5647 58.1894 18.9893 58.1894 19.492C58.1894 19.9947 58.0161 20.428 57.6694 20.792C57.3227 21.1387 56.8894 21.312 56.3694 21.312C55.8667 21.312 55.4421 21.1387 55.0954 20.792C54.7487 20.428 54.5754 19.9947 54.5754 19.492C54.5754 18.9893 54.7487 18.5647 55.0954 18.218C55.4421 17.8713 55.8667 17.698 56.3694 17.698ZM78.5443 21L77.1923 16.502H70.4063L69.0543 21H66.5583L72.3043 3.086H75.4243L81.1443 21H78.5443ZM71.0043 14.5H76.5943L73.8123 5.14L71.0043 14.5ZM86.5066 21.312C85.6226 21.312 84.9206 21.052 84.4006 20.532C83.898 19.9947 83.6466 19.2493 83.6466 18.296V1.786L86.0386 1.5V18.244C86.0386 18.6253 86.0993 18.9027 86.2206 19.076C86.3593 19.2493 86.5846 19.336 86.8966 19.336C87.226 19.336 87.5206 19.284 87.7806 19.18L88.4046 20.844C87.8326 21.156 87.2 21.312 86.5066 21.312ZM94.1238 21.312C93.2398 21.312 92.5378 21.052 92.0178 20.532C91.5152 19.9947 91.2638 19.2493 91.2638 18.296V1.786L93.6558 1.5V18.244C93.6558 18.6253 93.7165 18.9027 93.8378 19.076C93.9765 19.2493 94.2018 19.336 94.5138 19.336C94.8432 19.336 95.1378 19.284 95.3978 19.18L96.0218 20.844C95.4498 21.156 94.8172 21.312 94.1238 21.312ZM111.846 6.986C112.331 6.986 112.782 7.038 113.198 7.142L112.756 9.482C112.34 9.378 111.941 9.326 111.56 9.326C110.711 9.326 110.026 9.638 109.506 10.262C108.986 10.886 108.579 11.8567 108.284 13.174V21H105.892V7.298H107.946L108.18 10.08C108.544 9.05733 109.038 8.286 109.662 7.766C110.286 7.246 111.014 6.986 111.846 6.986ZM118.313 7.298V21H115.921V7.298H118.313ZM117.091 0.719999C117.594 0.719999 118.001 0.875999 118.313 1.188C118.625 1.5 118.781 1.89 118.781 2.358C118.781 2.826 118.625 3.216 118.313 3.528C118.001 3.82267 117.594 3.97 117.091 3.97C116.606 3.97 116.207 3.82267 115.895 3.528C115.583 3.216 115.427 2.826 115.427 2.358C115.427 1.89 115.583 1.5 115.895 1.188C116.207 0.875999 116.606 0.719999 117.091 0.719999ZM134.309 7.922C133.789 8.09533 133.217 8.208 132.593 8.26C131.969 8.312 131.206 8.338 130.305 8.338C131.917 9.066 132.723 10.2187 132.723 11.796C132.723 13.1653 132.255 14.2833 131.319 15.15C130.383 16.0167 129.109 16.45 127.497 16.45C126.873 16.45 126.292 16.3633 125.755 16.19C125.547 16.3287 125.382 16.5193 125.261 16.762C125.14 16.9873 125.079 17.2213 125.079 17.464C125.079 18.2093 125.677 18.582 126.873 18.582H129.057C129.976 18.582 130.79 18.7467 131.501 19.076C132.212 19.4053 132.758 19.856 133.139 20.428C133.538 21 133.737 21.65 133.737 22.378C133.737 23.7127 133.191 24.7353 132.099 25.446C131.007 26.174 129.412 26.538 127.315 26.538C125.842 26.538 124.672 26.382 123.805 26.07C122.956 25.7753 122.349 25.3247 121.985 24.718C121.621 24.1113 121.439 23.3313 121.439 22.378H123.597C123.597 22.9327 123.701 23.366 123.909 23.678C124.117 24.0073 124.49 24.25 125.027 24.406C125.564 24.5793 126.327 24.666 127.315 24.666C128.754 24.666 129.776 24.484 130.383 24.12C131.007 23.7733 131.319 23.2447 131.319 22.534C131.319 21.8927 131.076 21.4073 130.591 21.078C130.106 20.7487 129.43 20.584 128.563 20.584H126.405C125.244 20.584 124.36 20.3413 123.753 19.856C123.164 19.3533 122.869 18.7293 122.869 17.984C122.869 17.5333 122.999 17.1 123.259 16.684C123.519 16.268 123.892 15.8953 124.377 15.566C123.58 15.15 122.99 14.6387 122.609 14.032C122.245 13.408 122.063 12.654 122.063 11.77C122.063 10.8513 122.288 10.028 122.739 9.3C123.207 8.572 123.84 8.00867 124.637 7.61C125.452 7.194 126.353 6.986 127.341 6.986C128.416 7.00333 129.317 6.96867 130.045 6.882C130.773 6.778 131.371 6.648 131.839 6.492C132.324 6.31867 132.914 6.076 133.607 5.764L134.309 7.922ZM127.341 8.702C126.44 8.702 125.738 8.988 125.235 9.56C124.75 10.1147 124.507 10.8513 124.507 11.77C124.507 12.706 124.758 13.46 125.261 14.032C125.764 14.5867 126.474 14.864 127.393 14.864C128.329 14.864 129.04 14.5953 129.525 14.058C130.028 13.5033 130.279 12.732 130.279 11.744C130.279 9.716 129.3 8.702 127.341 8.702ZM143.215 6.986C144.463 6.986 145.434 7.35867 146.127 8.104C146.838 8.84933 147.193 9.872 147.193 11.172V21H144.801V11.51C144.801 10.5393 144.61 9.85467 144.229 9.456C143.865 9.05733 143.328 8.858 142.617 8.858C141.906 8.858 141.274 9.066 140.719 9.482C140.164 9.898 139.644 10.4873 139.159 11.25V21H136.767V1.812L139.159 1.552V9.196C140.234 7.72267 141.586 6.986 143.215 6.986ZM158.917 20.376C158.016 21 156.993 21.312 155.849 21.312C154.688 21.312 153.778 20.9827 153.119 20.324C152.478 19.648 152.157 18.6773 152.157 17.412V9.144H149.765V7.298H152.157V4.204L154.549 3.918V7.298H157.799L157.539 9.144H154.549V17.308C154.549 18.0187 154.671 18.5387 154.913 18.868C155.173 19.18 155.598 19.336 156.187 19.336C156.725 19.336 157.331 19.154 158.007 18.79L158.917 20.376ZM165.114 6.986C166.05 6.986 166.89 7.116 167.636 7.376C168.381 7.636 169.092 8.026 169.768 8.546L168.754 10.054C168.13 9.65533 167.532 9.36067 166.96 9.17C166.405 8.97933 165.816 8.884 165.192 8.884C164.412 8.884 163.796 9.04867 163.346 9.378C162.895 9.69 162.67 10.1233 162.67 10.678C162.67 11.2327 162.878 11.666 163.294 11.978C163.727 12.29 164.498 12.5933 165.608 12.888C167.133 13.2693 168.268 13.7893 169.014 14.448C169.776 15.1067 170.158 16.008 170.158 17.152C170.158 18.504 169.629 19.5353 168.572 20.246C167.532 20.9567 166.258 21.312 164.75 21.312C162.67 21.312 160.945 20.714 159.576 19.518L160.85 18.062C162.011 18.946 163.294 19.388 164.698 19.388C165.599 19.388 166.31 19.206 166.83 18.842C167.367 18.4607 167.636 17.9493 167.636 17.308C167.636 16.84 167.54 16.4673 167.35 16.19C167.159 15.8953 166.83 15.644 166.362 15.436C165.894 15.2107 165.209 14.9767 164.308 14.734C162.852 14.3527 161.794 13.8413 161.136 13.2C160.494 12.5587 160.174 11.744 160.174 10.756C160.174 10.0453 160.382 9.404 160.798 8.832C161.231 8.24267 161.82 7.792 162.566 7.48C163.328 7.15067 164.178 6.986 165.114 6.986ZM186.367 6.986C186.853 6.986 187.303 7.038 187.719 7.142L187.277 9.482C186.861 9.378 186.463 9.326 186.081 9.326C185.232 9.326 184.547 9.638 184.027 10.262C183.507 10.886 183.1 11.8567 182.805 13.174V21H180.413V7.298H182.467L182.701 10.08C183.065 9.05733 183.559 8.286 184.183 7.766C184.807 7.246 185.535 6.986 186.367 6.986ZM200.004 13.746C200.004 14.1447 199.986 14.552 199.952 14.968H191.216C191.32 16.476 191.701 17.5853 192.36 18.296C193.018 19.0067 193.868 19.362 194.908 19.362C195.566 19.362 196.173 19.2667 196.728 19.076C197.282 18.8853 197.863 18.582 198.47 18.166L199.51 19.596C198.054 20.74 196.459 21.312 194.726 21.312C192.819 21.312 191.328 20.688 190.254 19.44C189.196 18.192 188.668 16.476 188.668 14.292C188.668 12.8707 188.893 11.614 189.344 10.522C189.812 9.41267 190.47 8.546 191.32 7.922C192.186 7.298 193.2 6.986 194.362 6.986C196.182 6.986 197.577 7.584 198.548 8.78C199.518 9.976 200.004 11.6313 200.004 13.746ZM197.638 13.044C197.638 11.692 197.369 10.6607 196.832 9.95C196.294 9.23933 195.488 8.884 194.414 8.884C192.455 8.884 191.389 10.3227 191.216 13.2H197.638V13.044ZM207.542 6.986C208.478 6.986 209.318 7.116 210.064 7.376C210.809 7.636 211.52 8.026 212.196 8.546L211.182 10.054C210.558 9.65533 209.96 9.36067 209.388 9.17C208.833 8.97933 208.244 8.884 207.62 8.884C206.84 8.884 206.224 9.04867 205.774 9.378C205.323 9.69 205.098 10.1233 205.098 10.678C205.098 11.2327 205.306 11.666 205.722 11.978C206.155 12.29 206.926 12.5933 208.036 12.888C209.561 13.2693 210.696 13.7893 211.442 14.448C212.204 15.1067 212.586 16.008 212.586 17.152C212.586 18.504 212.057 19.5353 211 20.246C209.96 20.9567 208.686 21.312 207.178 21.312C205.098 21.312 203.373 20.714 202.004 19.518L203.278 18.062C204.439 18.946 205.722 19.388 207.126 19.388C208.027 19.388 208.738 19.206 209.258 18.842C209.795 18.4607 210.064 17.9493 210.064 17.308C210.064 16.84 209.968 16.4673 209.778 16.19C209.587 15.8953 209.258 15.644 208.79 15.436C208.322 15.2107 207.637 14.9767 206.736 14.734C205.28 14.3527 204.222 13.8413 203.564 13.2C202.922 12.5587 202.602 11.744 202.602 10.756C202.602 10.0453 202.81 9.404 203.226 8.832C203.659 8.24267 204.248 7.792 204.994 7.48C205.756 7.15067 206.606 6.986 207.542 6.986ZM226.308 13.746C226.308 14.1447 226.291 14.552 226.256 14.968H217.52C217.624 16.476 218.006 17.5853 218.664 18.296C219.323 19.0067 220.172 19.362 221.212 19.362C221.871 19.362 222.478 19.2667 223.032 19.076C223.587 18.8853 224.168 18.582 224.774 18.166L225.814 19.596C224.358 20.74 222.764 21.312 221.03 21.312C219.124 21.312 217.633 20.688 216.558 19.44C215.501 18.192 214.972 16.476 214.972 14.292C214.972 12.8707 215.198 11.614 215.648 10.522C216.116 9.41267 216.775 8.546 217.624 7.922C218.491 7.298 219.505 6.986 220.666 6.986C222.486 6.986 223.882 7.584 224.852 8.78C225.823 9.976 226.308 11.6313 226.308 13.746ZM223.942 13.044C223.942 11.692 223.674 10.6607 223.136 9.95C222.599 9.23933 221.793 8.884 220.718 8.884C218.76 8.884 217.694 10.3227 217.52 13.2H223.942V13.044ZM236.082 6.986C236.568 6.986 237.018 7.038 237.434 7.142L236.992 9.482C236.576 9.378 236.178 9.326 235.796 9.326C234.947 9.326 234.262 9.638 233.742 10.262C233.222 10.886 232.815 11.8567 232.52 13.174V21H230.128V7.298H232.182L232.416 10.08C232.78 9.05733 233.274 8.286 233.898 7.766C234.522 7.246 235.25 6.986 236.082 6.986ZM250.22 7.298L245.566 21H242.68L237.948 7.298H240.548L244.136 18.868L247.698 7.298H250.22ZM263.201 13.746C263.201 14.1447 263.183 14.552 263.149 14.968H254.413C254.517 16.476 254.898 17.5853 255.557 18.296C256.215 19.0067 257.065 19.362 258.105 19.362C258.763 19.362 259.37 19.2667 259.925 19.076C260.479 18.8853 261.06 18.582 261.667 18.166L262.707 19.596C261.251 20.74 259.656 21.312 257.923 21.312C256.016 21.312 254.525 20.688 253.451 19.44C252.393 18.192 251.865 16.476 251.865 14.292C251.865 12.8707 252.09 11.614 252.541 10.522C253.009 9.41267 253.667 8.546 254.517 7.922C255.383 7.298 256.397 6.986 257.559 6.986C259.379 6.986 260.774 7.584 261.745 8.78C262.715 9.976 263.201 11.6313 263.201 13.746ZM260.835 13.044C260.835 11.692 260.566 10.6607 260.029 9.95C259.491 9.23933 258.685 8.884 257.611 8.884C255.652 8.884 254.586 10.3227 254.413 13.2H260.835V13.044ZM277.629 1.786V21H275.523L275.289 19.102C274.838 19.7953 274.275 20.3413 273.599 20.74C272.923 21.1213 272.169 21.312 271.337 21.312C269.707 21.312 268.433 20.6707 267.515 19.388C266.613 18.1053 266.163 16.3807 266.163 14.214C266.163 12.81 266.379 11.562 266.813 10.47C267.246 9.378 267.87 8.52867 268.685 7.922C269.499 7.298 270.453 6.986 271.545 6.986C272.949 6.986 274.179 7.54933 275.237 8.676V1.5L277.629 1.786ZM271.857 19.414C272.585 19.414 273.209 19.2493 273.729 18.92C274.249 18.5733 274.751 18.062 275.237 17.386V10.678C274.786 10.0887 274.301 9.64667 273.781 9.352C273.278 9.04 272.706 8.884 272.065 8.884C271.007 8.884 270.184 9.326 269.595 10.21C269.023 11.094 268.737 12.4113 268.737 14.162C268.737 15.93 269.005 17.2473 269.543 18.114C270.08 18.9807 270.851 19.414 271.857 19.414Z" fill="#CCCCCC"/>
<path d="M283.184 17.698C283.704 17.698 284.137 17.8713 284.484 18.218C284.831 18.5647 285.004 18.9893 285.004 19.492C285.004 19.9947 284.831 20.428 284.484 20.792C284.137 21.1387 283.704 21.312 283.184 21.312C282.681 21.312 282.257 21.1387 281.91 20.792C281.563 20.428 281.39 19.9947 281.39 19.492C281.39 18.9893 281.563 18.5647 281.91 18.218C282.257 17.8713 282.681 17.698 283.184 17.698Z" fill="#FF6393"/>
</svg>
