<svg width="21" height="21" viewBox="0 0 21 21" fill="none" xmlns="http://www.w3.org/2000/svg">
<path d="M12.25 7.7C12.25 7.6125 12.2792 7.52865 12.3375 7.44844C12.3958 7.36823 12.4615 7.31354 12.5344 7.28437C12.9719 7.12396 13.4203 7 13.8797 6.9125C14.3391 6.825 14.8167 6.78125 15.3125 6.78125C15.6333 6.78125 15.9469 6.79948 16.2531 6.83594C16.5594 6.8724 16.8583 6.92708 17.15 7C17.2375 7.02917 17.3177 7.08385 17.3906 7.16406C17.4635 7.24427 17.5 7.33542 17.5 7.4375C17.5 7.59792 17.4453 7.72188 17.3359 7.80938C17.2266 7.89688 17.0917 7.91875 16.9313 7.875C16.6833 7.80208 16.4245 7.7474 16.1547 7.71094C15.8849 7.67448 15.6042 7.65625 15.3125 7.65625C14.8896 7.65625 14.4813 7.69635 14.0875 7.77656C13.6938 7.85677 13.3073 7.97708 12.9281 8.1375C12.724 8.21042 12.5599 8.20677 12.4359 8.12656C12.312 8.04635 12.25 7.90417 12.25 7.7ZM12.25 12.5125C12.25 12.425 12.2792 12.3375 12.3375 12.25C12.3958 12.1625 12.4615 12.1042 12.5344 12.075C12.9719 11.9146 13.4203 11.7943 13.8797 11.7141C14.3391 11.6339 14.8167 11.5938 15.3125 11.5938C15.6333 11.5938 15.9469 11.612 16.2531 11.6484C16.5594 11.6849 16.8583 11.7396 17.15 11.8125C17.2375 11.8417 17.3177 11.8964 17.3906 11.9766C17.4635 12.0568 17.5 12.1479 17.5 12.25C17.5 12.4104 17.4453 12.5344 17.3359 12.6219C17.2266 12.7094 17.0917 12.7313 16.9313 12.6875C16.6833 12.6146 16.4245 12.5599 16.1547 12.5234C15.8849 12.487 15.6042 12.4688 15.3125 12.4688C14.8896 12.4688 14.4813 12.5052 14.0875 12.5781C13.6938 12.651 13.3073 12.7677 12.9281 12.9281C12.724 13.001 12.5599 13.001 12.4359 12.9281C12.312 12.8552 12.25 12.7167 12.25 12.5125ZM12.25 10.1063C12.25 10.0188 12.2792 9.9349 12.3375 9.85469C12.3958 9.77448 12.4615 9.71979 12.5344 9.69062C12.9719 9.53021 13.4203 9.40625 13.8797 9.31875C14.3391 9.23125 14.8167 9.1875 15.3125 9.1875C15.6333 9.1875 15.9469 9.20573 16.2531 9.24219C16.5594 9.27865 16.8583 9.33333 17.15 9.40625C17.2375 9.43542 17.3177 9.4901 17.3906 9.57031C17.4635 9.65052 17.5 9.74167 17.5 9.84375C17.5 10.0042 17.4453 10.1281 17.3359 10.2156C17.2266 10.3031 17.0917 10.325 16.9313 10.2812C16.6833 10.2083 16.4245 10.1536 16.1547 10.1172C15.8849 10.0807 15.6042 10.0625 15.3125 10.0625C14.8896 10.0625 14.4813 10.1026 14.0875 10.1828C13.6938 10.263 13.3073 10.3833 12.9281 10.5438C12.724 10.6167 12.5599 10.613 12.4359 10.5328C12.312 10.4526 12.25 10.3104 12.25 10.1063ZM5.425 14.4375C6.2125 14.4375 6.97448 14.5286 7.71094 14.7109C8.4474 14.8932 9.17292 15.1667 9.8875 15.5312V6.19062C9.23125 5.75312 8.52031 5.41406 7.75469 5.17344C6.98906 4.93281 6.2125 4.8125 5.425 4.8125C4.87083 4.8125 4.3276 4.88177 3.79531 5.02031C3.26302 5.15885 2.72708 5.33021 2.1875 5.53437V15.0281C2.63958 14.824 3.15365 14.6745 3.72969 14.5797C4.30573 14.4849 4.87083 14.4375 5.425 14.4375ZM11.2 15.5312C11.9292 15.1667 12.6437 14.8932 13.3438 14.7109C14.0438 14.5286 14.7875 14.4375 15.575 14.4375C16.1292 14.4375 16.7016 14.4812 17.2922 14.5687C17.8828 14.6562 18.3896 14.7729 18.8125 14.9187V5.53437C18.3167 5.28646 17.7917 5.10417 17.2375 4.9875C16.6833 4.87083 16.1292 4.8125 15.575 4.8125C14.7875 4.8125 14.0255 4.93281 13.2891 5.17344C12.5526 5.41406 11.8563 5.75312 11.2 6.19062V15.5312ZM10.5438 17.2594C10.4271 17.2594 10.3214 17.2484 10.2266 17.2266C10.1318 17.2047 10.0479 17.1646 9.975 17.1062C9.28958 16.6833 8.56042 16.3552 7.7875 16.1219C7.01458 15.8885 6.22708 15.7719 5.425 15.7719C4.88542 15.7719 4.36042 15.8375 3.85 15.9688C3.33958 16.1 2.82917 16.2604 2.31875 16.45C1.98333 16.6104 1.65885 16.5885 1.34531 16.3844C1.03177 16.1802 0.875 15.8885 0.875 15.5094V5.38125C0.875 5.1625 0.926042 4.96198 1.02812 4.77969C1.13021 4.5974 1.28333 4.45521 1.4875 4.35312C2.1 4.06146 2.73802 3.84635 3.40156 3.70781C4.0651 3.56927 4.73958 3.5 5.425 3.5C6.34375 3.5 7.23698 3.62396 8.10469 3.87188C8.9724 4.11979 9.78542 4.49896 10.5438 5.00937C11.2875 4.49896 12.0859 4.11979 12.9391 3.87188C13.7922 3.62396 14.6708 3.5 15.575 3.5C16.2604 3.5 16.9313 3.56927 17.5875 3.70781C18.2438 3.84635 18.8781 4.06146 19.4906 4.35312C19.6948 4.45521 19.8516 4.5974 19.9609 4.77969C20.0703 4.96198 20.125 5.1625 20.125 5.38125V15.5094C20.125 15.9177 19.9609 16.2276 19.6328 16.4391C19.3047 16.6505 18.9802 16.6542 18.6594 16.45C18.1635 16.2458 17.6604 16.0818 17.15 15.9578C16.6396 15.8339 16.1146 15.7719 15.575 15.7719C14.7875 15.7719 14.0146 15.8885 13.2562 16.1219C12.4979 16.3552 11.7833 16.6833 11.1125 17.1062C11.0396 17.1646 10.9557 17.2047 10.8609 17.2266C10.7661 17.2484 10.6604 17.2594 10.5438 17.2594Z" fill="url(#paint0_linear_35_31)"/>
<defs>
<linearGradient id="paint0_linear_35_31" x1="10.5" y1="3.5" x2="10.5" y2="17.2594" gradientUnits="userSpaceOnUse">
<stop stop-color="#FFAEC7"/>
<stop offset="1" stop-color="#F9004D"/>
</linearGradient>
</defs>
</svg>
