<svg width="21" height="21" viewBox="0 0 21 21" fill="none" xmlns="http://www.w3.org/2000/svg">
<path d="M10.5 19.25C9.275 19.25 8.13021 19.0203 7.06562 18.5609C6.00104 18.1016 5.075 17.4781 4.2875 16.6906C3.5 15.9031 2.88021 14.9734 2.42813 13.9016C1.97604 12.8297 1.75 11.6812 1.75 10.4562C1.75 9.23125 1.97604 8.0901 2.42813 7.03281C2.88021 5.97552 3.5 5.05312 4.2875 4.26562C5.075 3.47813 6.00104 2.86198 7.06562 2.41719C8.13021 1.9724 9.275 1.75 10.5 1.75C11.725 1.75 12.8698 1.9724 13.9344 2.41719C14.999 2.86198 15.925 3.47813 16.7125 4.26562C17.5 5.05312 18.1198 5.97552 18.5719 7.03281C19.024 8.0901 19.25 9.23125 19.25 10.4562C19.25 11.6812 19.024 12.8297 18.5719 13.9016C18.1198 14.9734 17.5 15.9031 16.7125 16.6906C15.925 17.4781 14.999 18.1016 13.9344 18.5609C12.8698 19.0203 11.725 19.25 10.5 19.25ZM10.5 17.9812C11.0104 17.4562 11.437 16.8547 11.7797 16.1766C12.1224 15.4984 12.4031 14.6927 12.6219 13.7594H8.4C8.60417 14.6344 8.8776 15.4219 9.22031 16.1219C9.56302 16.8219 9.98958 17.4417 10.5 17.9812ZM8.64062 17.7188C8.27604 17.1646 7.9625 16.5667 7.7 15.925C7.4375 15.2833 7.21875 14.5615 7.04375 13.7594H3.7625C4.31667 14.7948 4.95833 15.6078 5.6875 16.1984C6.41667 16.7891 7.40104 17.2958 8.64062 17.7188ZM12.3812 17.6969C13.4312 17.3615 14.3755 16.8583 15.2141 16.1875C16.0526 15.5167 16.7271 14.7073 17.2375 13.7594H13.9781C13.7885 14.5469 13.5661 15.2615 13.3109 15.9031C13.0557 16.5448 12.7458 17.1427 12.3812 17.6969ZM3.325 12.4469H6.80313C6.75938 12.0531 6.73385 11.6995 6.72656 11.3859C6.71927 11.0724 6.71563 10.7625 6.71563 10.4562C6.71563 10.0917 6.72292 9.76719 6.7375 9.48281C6.75208 9.19844 6.78125 8.88125 6.825 8.53125H3.325C3.22292 8.88125 3.15365 9.19479 3.11719 9.47187C3.08073 9.74896 3.0625 10.0771 3.0625 10.4562C3.0625 10.8354 3.08073 11.1745 3.11719 11.4734C3.15365 11.7724 3.22292 12.0969 3.325 12.4469ZM8.15937 12.4469H12.8625C12.9208 11.9948 12.9573 11.6266 12.9719 11.3422C12.9865 11.0578 12.9938 10.7625 12.9938 10.4562C12.9938 10.1646 12.9865 9.88385 12.9719 9.61406C12.9573 9.34427 12.9208 8.98333 12.8625 8.53125H8.15937C8.10104 8.98333 8.06458 9.34427 8.05 9.61406C8.03542 9.88385 8.02813 10.1646 8.02813 10.4562C8.02813 10.7625 8.03542 11.0578 8.05 11.3422C8.06458 11.6266 8.10104 11.9948 8.15937 12.4469ZM14.175 12.4469H17.675C17.7771 12.0969 17.8464 11.7724 17.8828 11.4734C17.9193 11.1745 17.9375 10.8354 17.9375 10.4562C17.9375 10.0771 17.9193 9.74896 17.8828 9.47187C17.8464 9.19479 17.7771 8.88125 17.675 8.53125H14.1969C14.2406 9.04167 14.2698 9.43177 14.2844 9.70156C14.299 9.97135 14.3063 10.2229 14.3063 10.4562C14.3063 10.7771 14.2953 11.0797 14.2734 11.3641C14.2516 11.6484 14.2188 12.0094 14.175 12.4469ZM13.9562 7.21875H17.2375C16.7563 6.2125 16.0964 5.37396 15.2578 4.70312C14.4193 4.03229 13.4531 3.55833 12.3594 3.28125C12.724 3.82083 13.0339 4.40417 13.2891 5.03125C13.5443 5.65833 13.7667 6.3875 13.9562 7.21875ZM8.4 7.21875H12.6437C12.4833 6.44583 12.2135 5.69844 11.8344 4.97656C11.4552 4.25469 11.0104 3.61667 10.5 3.0625C10.0333 3.45625 9.63958 3.97396 9.31875 4.61563C8.99792 5.25729 8.69167 6.125 8.4 7.21875ZM3.7625 7.21875H7.06562C7.22604 6.43125 7.43021 5.7276 7.67812 5.10781C7.92604 4.48802 8.23958 3.88646 8.61875 3.30313C7.525 3.58021 6.56979 4.04688 5.75312 4.70312C4.93646 5.35938 4.27292 6.19792 3.7625 7.21875Z" fill="url(#paint0_linear_35_29)"/>
<defs>
<linearGradient id="paint0_linear_35_29" x1="10.5" y1="1.75" x2="10.5" y2="19.25" gradientUnits="userSpaceOnUse">
<stop stop-color="#FFAEC7"/>
<stop offset="1" stop-color="#F9004D"/>
</linearGradient>
</defs>
</svg>
