<svg width="144" height="49" viewBox="0 0 144 49" fill="none" xmlns="http://www.w3.org/2000/svg">
<path d="M18.94 5.52V6.72C17.58 6.76 16.54 6.92 15.82 7.2C15.14 7.44 14.68 7.92 14.44 8.64C14.2 9.32 14.08 10.4 14.08 11.88V42.36C14.08 43.6 14.16 44.52 14.32 45.12C14.52 45.72 14.88 46.12 15.4 46.32C15.96 46.52 16.78 46.62 17.86 46.62H20.8C22.16 46.62 23.44 46.3 24.64 45.66C25.84 45.02 26.92 44.12 27.88 42.96C28.84 41.76 29.64 40.34 30.28 38.7C30.92 37.06 31.4 35.24 31.72 33.24H33.1C32.98 34.6 32.92 36.36 32.92 38.52C32.92 39.44 32.94 40.78 32.98 42.54C33.02 44.3 33.14 46.12 33.34 48C31.3 47.92 29 47.88 26.44 47.88C23.88 47.84 21.6 47.82 19.6 47.82C18.6 47.82 17.32 47.82 15.76 47.82C14.2 47.82 12.52 47.84 10.72 47.88C8.92 47.88 7.1 47.9 5.26 47.94C3.42 47.94 1.68 47.96 0.0400001 48V46.8C1.32 46.72 2.28 46.56 2.92 46.32C3.56 46.08 3.98 45.6 4.18 44.88C4.42 44.16 4.54 43.08 4.54 41.64V11.88C4.54 10.4 4.42 9.32 4.18 8.64C3.98 7.92 3.54 7.44 2.86 7.2C2.22 6.92 1.28 6.76 0.0400001 6.72V5.52C1.04 5.56 2.38 5.6 4.06 5.64C5.78 5.68 7.6 5.7 9.52 5.7C11.28 5.7 13 5.68 14.68 5.64C16.4 5.6 17.82 5.56 18.94 5.52ZM51.5997 16.14C55.1197 16.14 57.8797 17.18 59.8797 19.26C61.8797 21.34 62.8797 24.74 62.8797 29.46H43.1397L43.0197 28.32H55.3197C55.3597 26.36 55.2397 24.56 54.9597 22.92C54.6797 21.24 54.2397 19.9 53.6397 18.9C53.0397 17.9 52.2397 17.4 51.2397 17.4C49.8397 17.4 48.6397 18.28 47.6397 20.04C46.6797 21.8 46.0997 24.72 45.8997 28.8L46.0797 29.16C46.0397 29.64 45.9997 30.14 45.9597 30.66C45.9597 31.18 45.9597 31.72 45.9597 32.28C45.9597 35.04 46.3397 37.28 47.0997 39C47.8997 40.72 48.8997 41.98 50.0997 42.78C51.2997 43.54 52.5197 43.92 53.7597 43.92C54.5997 43.92 55.4597 43.8 56.3397 43.56C57.2597 43.28 58.1797 42.8 59.0997 42.12C60.0197 41.4 60.8797 40.4 61.6797 39.12L62.7597 39.48C62.2797 41 61.5197 42.48 60.4797 43.92C59.4397 45.36 58.1197 46.54 56.5197 47.46C54.9197 48.38 52.9997 48.84 50.7597 48.84C48.0397 48.84 45.6397 48.26 43.5597 47.1C41.4797 45.94 39.8397 44.18 38.6397 41.82C37.4797 39.46 36.8997 36.46 36.8997 32.82C36.8997 29.1 37.5197 26 38.7597 23.52C40.0397 21.04 41.7797 19.2 43.9797 18C46.2197 16.76 48.7597 16.14 51.5997 16.14ZM74.6341 48.42C72.8341 48.42 71.3341 48.08 70.1341 47.4C68.9341 46.72 68.0541 45.82 67.4941 44.7C66.9341 43.54 66.6541 42.28 66.6541 40.92C66.6541 39.2 67.0341 37.8 67.7941 36.72C68.5941 35.64 69.6141 34.76 70.8541 34.08C72.0941 33.4 73.3941 32.84 74.7541 32.4C76.1541 31.96 77.4741 31.54 78.7141 31.14C79.9941 30.7 81.0141 30.2 81.7741 29.64C82.5741 29.04 82.9741 28.28 82.9741 27.36V22.68C82.9741 21.64 82.7941 20.72 82.4341 19.92C82.1141 19.08 81.5941 18.44 80.8741 18C80.1941 17.56 79.2941 17.34 78.1741 17.34C77.3741 17.34 76.5741 17.46 75.7741 17.7C74.9741 17.9 74.3141 18.26 73.7941 18.78C74.9141 19.18 75.7741 19.8 76.3741 20.64C77.0141 21.44 77.3341 22.36 77.3341 23.4C77.3341 24.76 76.8541 25.84 75.8941 26.64C74.9741 27.44 73.8741 27.84 72.5941 27.84C71.1541 27.84 70.0541 27.4 69.2941 26.52C68.5741 25.6 68.2141 24.5 68.2141 23.22C68.2141 22.06 68.4941 21.1 69.0541 20.34C69.6541 19.58 70.4741 18.86 71.5141 18.18C72.6341 17.54 73.9741 17.04 75.5341 16.68C77.1341 16.32 78.8541 16.14 80.6941 16.14C82.5341 16.14 84.1941 16.34 85.6741 16.74C87.1541 17.1 88.3941 17.78 89.3941 18.78C90.3141 19.7 90.9141 20.84 91.1941 22.2C91.4741 23.52 91.6141 25.2 91.6141 27.24V43.56C91.6141 44.56 91.7141 45.26 91.9141 45.66C92.1141 46.02 92.4541 46.2 92.9341 46.2C93.2941 46.2 93.6341 46.1 93.9541 45.9C94.3141 45.7 94.6941 45.46 95.0941 45.18L95.6941 46.2C94.8541 46.92 93.8741 47.48 92.7541 47.88C91.6741 48.24 90.4541 48.42 89.0941 48.42C87.6141 48.42 86.4341 48.22 85.5541 47.82C84.6741 47.38 84.0341 46.8 83.6341 46.08C83.2741 45.36 83.0941 44.52 83.0941 43.56C82.1341 45.08 80.9741 46.28 79.6141 47.16C78.2541 48 76.5941 48.42 74.6341 48.42ZM78.8941 44.58C79.6941 44.58 80.4141 44.4 81.0541 44.04C81.7341 43.64 82.3741 43 82.9741 42.12V29.82C82.6141 30.42 82.1141 30.96 81.4741 31.44C80.8341 31.92 80.1541 32.42 79.4341 32.94C78.7141 33.42 78.0141 33.96 77.3341 34.56C76.6941 35.16 76.1741 35.9 75.7741 36.78C75.3741 37.66 75.1741 38.72 75.1741 39.96C75.1741 41.52 75.5141 42.68 76.1941 43.44C76.8741 44.2 77.7741 44.58 78.8941 44.58ZM76.0141 0.839999C77.2541 0.839999 78.2941 1.04 79.1341 1.44C79.9741 1.84 80.7341 2.3 81.4141 2.82C82.1341 3.34 82.8541 3.8 83.5741 4.2C84.3341 4.6 85.1941 4.8 86.1541 4.8C86.9941 4.8 87.7941 4.56 88.5541 4.08C89.3541 3.56 90.0941 2.74 90.7741 1.62L91.6141 2.04C90.9341 5 89.9141 7.14 88.5541 8.46C87.2341 9.74 85.7741 10.38 84.1741 10.38C82.9341 10.38 81.8741 10.18 80.9941 9.78C80.1541 9.38 79.3741 8.92 78.6541 8.4C77.9741 7.84 77.2741 7.36 76.5541 6.96C75.8341 6.56 74.9741 6.36 73.9741 6.36C73.1341 6.36 72.3141 6.62 71.5141 7.14C70.7541 7.62 70.0341 8.44 69.3541 9.6L68.5141 9.18C69.1941 6.18 70.2141 4.04 71.5741 2.76C72.9341 1.48 74.4141 0.839999 76.0141 0.839999ZM112.889 16.14C115.809 16.14 118.369 16.68 120.569 17.76C122.769 18.84 124.489 20.58 125.729 22.98C126.969 25.38 127.589 28.56 127.589 32.52C127.589 36.48 126.969 39.66 125.729 42.06C124.489 44.42 122.769 46.14 120.569 47.22C118.369 48.3 115.809 48.84 112.889 48.84C110.049 48.84 107.509 48.3 105.269 47.22C103.069 46.14 101.329 44.42 100.049 42.06C98.8088 39.66 98.1888 36.48 98.1888 32.52C98.1888 28.56 98.8088 25.38 100.049 22.98C101.329 20.58 103.069 18.84 105.269 17.76C107.509 16.68 110.049 16.14 112.889 16.14ZM112.889 17.34C111.289 17.34 109.949 18.54 108.869 20.94C107.789 23.3 107.249 27.16 107.249 32.52C107.249 37.88 107.789 41.74 108.869 44.1C109.949 46.46 111.289 47.64 112.889 47.64C114.529 47.64 115.869 46.46 116.909 44.1C117.989 41.74 118.529 37.88 118.529 32.52C118.529 27.16 117.989 23.3 116.909 20.94C115.869 18.54 114.529 17.34 112.889 17.34Z" fill="#141414"/>
<path d="M137.995 39.6C139.555 39.6 140.795 40.02 141.715 40.86C142.635 41.66 143.095 42.78 143.095 44.22C143.095 45.66 142.635 46.8 141.715 47.64C140.795 48.44 139.555 48.84 137.995 48.84C136.435 48.84 135.195 48.44 134.275 47.64C133.355 46.8 132.895 45.66 132.895 44.22C132.895 42.78 133.355 41.66 134.275 40.86C135.195 40.02 136.435 39.6 137.995 39.6Z" fill="#FF84AA"/>
</svg>
